<mxfile host="app.diagrams.net" modified="2023-09-26T23:52:53.108Z" agent="Mozilla/5.0 (Macintosh; Intel Mac OS X 10_15_7) AppleWebKit/605.1.15 (KHTML, like Gecko) Version/16.5.1 Safari/605.1.15" etag="QDbPFtAKKKrrOqC1IiK3" version="21.7.5" type="device">
  <diagram name="Page-1" id="e7e014a7-5840-1c2e-5031-d8a46d1fe8dd">
    <mxGraphModel dx="954" dy="647" grid="1" gridSize="10" guides="1" tooltips="1" connect="1" arrows="1" fold="1" page="1" pageScale="1" pageWidth="1169" pageHeight="826" background="none" math="0" shadow="0">
      <root>
        <mxCell id="0" />
        <mxCell id="1" parent="0" />
        <mxCell id="5HN4UKg1Xnu_4getq7X6-49" value="Pharmacy Shop Management System" style="swimlane;childLayout=stackLayout;resizeParent=1;resizeParentMax=0;startSize=20;html=1;" parent="1" vertex="1">
          <mxGeometry x="220" y="60" width="760" height="430" as="geometry" />
        </mxCell>
        <mxCell id="5HN4UKg1Xnu_4getq7X6-50" value="Staff" style="swimlane;startSize=20;html=1;" parent="5HN4UKg1Xnu_4getq7X6-49" vertex="1">
          <mxGeometry y="20" width="220" height="410" as="geometry" />
        </mxCell>
        <mxCell id="5HN4UKg1Xnu_4getq7X6-69" style="rounded=0;orthogonalLoop=1;jettySize=auto;html=1;exitX=0.493;exitY=0.867;exitDx=0;exitDy=0;entryX=0.5;entryY=0;entryDx=0;entryDy=0;exitPerimeter=0;" parent="5HN4UKg1Xnu_4getq7X6-50" source="5" target="5HN4UKg1Xnu_4getq7X6-56" edge="1">
          <mxGeometry relative="1" as="geometry" />
        </mxCell>
        <mxCell id="5" value="" style="ellipse;shape=startState;fillColor=#000000;strokeColor=none;" parent="5HN4UKg1Xnu_4getq7X6-50" vertex="1">
          <mxGeometry x="80" y="40" width="30" height="30" as="geometry" />
        </mxCell>
        <mxCell id="5HN4UKg1Xnu_4getq7X6-56" value="View&lt;br&gt;Email" style="rounded=1;whiteSpace=wrap;html=1;" parent="5HN4UKg1Xnu_4getq7X6-50" vertex="1">
          <mxGeometry x="45" y="110" width="100" height="40" as="geometry" />
        </mxCell>
        <mxCell id="m0uHN0fnXdyNOFm_q_yZ-55" style="edgeStyle=orthogonalEdgeStyle;rounded=0;orthogonalLoop=1;jettySize=auto;html=1;exitX=0.5;exitY=1;exitDx=0;exitDy=0;" edge="1" parent="5HN4UKg1Xnu_4getq7X6-50" source="5HN4UKg1Xnu_4getq7X6-98" target="m0uHN0fnXdyNOFm_q_yZ-54">
          <mxGeometry relative="1" as="geometry" />
        </mxCell>
        <mxCell id="5HN4UKg1Xnu_4getq7X6-98" value="Choose&lt;br&gt;the Email" style="rounded=1;whiteSpace=wrap;html=1;" parent="5HN4UKg1Xnu_4getq7X6-50" vertex="1">
          <mxGeometry x="42.5" y="180" width="105" height="40" as="geometry" />
        </mxCell>
        <mxCell id="m0uHN0fnXdyNOFm_q_yZ-54" value="Click Close &lt;br&gt;button" style="rounded=1;whiteSpace=wrap;html=1;" vertex="1" parent="5HN4UKg1Xnu_4getq7X6-50">
          <mxGeometry x="42.5" y="260" width="105" height="40" as="geometry" />
        </mxCell>
        <mxCell id="5HN4UKg1Xnu_4getq7X6-51" value="System" style="swimlane;startSize=20;html=1;" parent="5HN4UKg1Xnu_4getq7X6-49" vertex="1">
          <mxGeometry x="220" y="20" width="300" height="410" as="geometry" />
        </mxCell>
        <mxCell id="5HN4UKg1Xnu_4getq7X6-85" value="[Yes]" style="text;html=1;strokeColor=none;fillColor=none;align=center;verticalAlign=middle;whiteSpace=wrap;rounded=0;" parent="5HN4UKg1Xnu_4getq7X6-51" vertex="1">
          <mxGeometry x="145" y="255" width="76" height="30" as="geometry" />
        </mxCell>
        <mxCell id="m0uHN0fnXdyNOFm_q_yZ-74" style="rounded=0;orthogonalLoop=1;jettySize=auto;html=1;exitX=0.5;exitY=1;exitDx=0;exitDy=0;" edge="1" parent="5HN4UKg1Xnu_4getq7X6-51" source="m0uHN0fnXdyNOFm_q_yZ-53">
          <mxGeometry relative="1" as="geometry">
            <mxPoint x="30" y="200" as="targetPoint" />
            <Array as="points">
              <mxPoint x="123" y="360" />
              <mxPoint x="-200" y="360" />
              <mxPoint x="-200" y="170" />
              <mxPoint x="30" y="170" />
            </Array>
          </mxGeometry>
        </mxCell>
        <mxCell id="5HN4UKg1Xnu_4getq7X6-86" value="[No]" style="text;html=1;strokeColor=none;fillColor=none;align=center;verticalAlign=middle;whiteSpace=wrap;rounded=0;" parent="5HN4UKg1Xnu_4getq7X6-51" vertex="1">
          <mxGeometry x="69.5" y="295" width="73" height="30" as="geometry" />
        </mxCell>
        <mxCell id="5HN4UKg1Xnu_4getq7X6-122" value="Display&lt;br&gt;All Email" style="rounded=1;whiteSpace=wrap;html=1;" parent="5HN4UKg1Xnu_4getq7X6-51" vertex="1">
          <mxGeometry x="70" y="180" width="105" height="40" as="geometry" />
        </mxCell>
        <mxCell id="m0uHN0fnXdyNOFm_q_yZ-73" style="rounded=0;orthogonalLoop=1;jettySize=auto;html=1;exitX=1;exitY=0.5;exitDx=0;exitDy=0;entryX=0;entryY=0.5;entryDx=0;entryDy=0;" edge="1" parent="5HN4UKg1Xnu_4getq7X6-51" source="m0uHN0fnXdyNOFm_q_yZ-53" target="m0uHN0fnXdyNOFm_q_yZ-72">
          <mxGeometry relative="1" as="geometry" />
        </mxCell>
        <mxCell id="m0uHN0fnXdyNOFm_q_yZ-53" value="" style="rhombus;whiteSpace=wrap;html=1;" vertex="1" parent="5HN4UKg1Xnu_4getq7X6-51">
          <mxGeometry x="102.5" y="268" width="40" height="27" as="geometry" />
        </mxCell>
        <mxCell id="m0uHN0fnXdyNOFm_q_yZ-72" value="" style="ellipse;html=1;shape=endState;fillColor=#000000;strokeColor=#000000;" vertex="1" parent="5HN4UKg1Xnu_4getq7X6-51">
          <mxGeometry x="240" y="266.5" width="30" height="30" as="geometry" />
        </mxCell>
        <mxCell id="m0uHN0fnXdyNOFm_q_yZ-5" value="Email Server" style="swimlane;startSize=20;html=1;" vertex="1" parent="5HN4UKg1Xnu_4getq7X6-49">
          <mxGeometry x="520" y="20" width="240" height="410" as="geometry" />
        </mxCell>
        <mxCell id="m0uHN0fnXdyNOFm_q_yZ-49" value="" style="rounded=1;whiteSpace=wrap;html=1;" vertex="1" parent="m0uHN0fnXdyNOFm_q_yZ-5">
          <mxGeometry x="67.5" y="110" width="105" height="40" as="geometry" />
        </mxCell>
        <mxCell id="m0uHN0fnXdyNOFm_q_yZ-50" style="edgeStyle=orthogonalEdgeStyle;rounded=0;orthogonalLoop=1;jettySize=auto;html=1;exitX=1;exitY=0.5;exitDx=0;exitDy=0;entryX=0;entryY=0.5;entryDx=0;entryDy=0;" edge="1" parent="5HN4UKg1Xnu_4getq7X6-49" source="5HN4UKg1Xnu_4getq7X6-56" target="m0uHN0fnXdyNOFm_q_yZ-49">
          <mxGeometry relative="1" as="geometry" />
        </mxCell>
        <mxCell id="m0uHN0fnXdyNOFm_q_yZ-51" style="edgeStyle=orthogonalEdgeStyle;rounded=0;orthogonalLoop=1;jettySize=auto;html=1;exitX=0.5;exitY=1;exitDx=0;exitDy=0;entryX=1;entryY=0.5;entryDx=0;entryDy=0;" edge="1" parent="5HN4UKg1Xnu_4getq7X6-49" source="m0uHN0fnXdyNOFm_q_yZ-49" target="5HN4UKg1Xnu_4getq7X6-122">
          <mxGeometry relative="1" as="geometry" />
        </mxCell>
        <mxCell id="m0uHN0fnXdyNOFm_q_yZ-52" style="edgeStyle=orthogonalEdgeStyle;rounded=0;orthogonalLoop=1;jettySize=auto;html=1;exitX=0;exitY=0.5;exitDx=0;exitDy=0;" edge="1" parent="5HN4UKg1Xnu_4getq7X6-49" source="5HN4UKg1Xnu_4getq7X6-122" target="5HN4UKg1Xnu_4getq7X6-98">
          <mxGeometry relative="1" as="geometry" />
        </mxCell>
        <mxCell id="m0uHN0fnXdyNOFm_q_yZ-56" style="rounded=0;orthogonalLoop=1;jettySize=auto;html=1;exitX=1;exitY=0.5;exitDx=0;exitDy=0;entryX=0;entryY=0.5;entryDx=0;entryDy=0;" edge="1" parent="5HN4UKg1Xnu_4getq7X6-49" source="m0uHN0fnXdyNOFm_q_yZ-54" target="m0uHN0fnXdyNOFm_q_yZ-53">
          <mxGeometry relative="1" as="geometry" />
        </mxCell>
      </root>
    </mxGraphModel>
  </diagram>
</mxfile>
